<svg width="221" height="27" viewBox="0 0 221 27" fill="none" xmlns="http://www.w3.org/2000/svg">
<path d="M49.5098 20H40.8086V18.4443L44.1396 15.0693C44.7842 14.4131 45.3145 13.8477 45.7305 13.373C46.1465 12.8926 46.4541 12.4385 46.6533 12.0107C46.8584 11.583 46.9609 11.1172 46.9609 10.6133C46.9609 9.99219 46.7822 9.52344 46.4248 9.20703C46.0674 8.88477 45.5957 8.72363 45.0098 8.72363C44.4531 8.72363 43.9375 8.83496 43.4629 9.05762C42.9941 9.27441 42.5078 9.58496 42.0039 9.98926L40.8701 8.62695C41.2275 8.32227 41.6084 8.04395 42.0127 7.79199C42.4229 7.54004 42.8799 7.34082 43.3838 7.19434C43.8877 7.04199 44.4619 6.96582 45.1064 6.96582C45.9209 6.96582 46.624 7.1123 47.2158 7.40527C47.8076 7.69238 48.2617 8.09375 48.5781 8.60938C48.9004 9.125 49.0615 9.72559 49.0615 10.4111C49.0615 11.1025 48.9238 11.7412 48.6484 12.3271C48.373 12.9131 47.9805 13.4932 47.4707 14.0674C46.9609 14.6357 46.3545 15.2539 45.6514 15.9219L43.4277 18.0928V18.1895H49.5098V20ZM59.8105 13.5664C59.8105 14.6035 59.7285 15.5322 59.5645 16.3525C59.4062 17.167 59.1543 17.8584 58.8086 18.4268C58.4629 18.9951 58.0117 19.4287 57.4551 19.7275C56.8984 20.0264 56.2246 20.1758 55.4336 20.1758C54.4434 20.1758 53.626 19.915 52.9814 19.3936C52.3369 18.8662 51.8594 18.1104 51.5488 17.126C51.2383 16.1357 51.083 14.9492 51.083 13.5664C51.083 12.1836 51.2236 11 51.5049 10.0156C51.792 9.02539 52.2549 8.2666 52.8936 7.73926C53.5322 7.21191 54.3789 6.94824 55.4336 6.94824C56.4297 6.94824 57.25 7.21191 57.8945 7.73926C58.5449 8.26074 59.0254 9.0166 59.3359 10.0068C59.6523 10.9912 59.8105 12.1777 59.8105 13.5664ZM53.166 13.5664C53.166 14.6504 53.2363 15.5557 53.377 16.2822C53.5234 17.0088 53.7637 17.5537 54.0977 17.917C54.4316 18.2744 54.877 18.4531 55.4336 18.4531C55.9902 18.4531 56.4355 18.2744 56.7695 17.917C57.1035 17.5596 57.3438 17.0176 57.4902 16.291C57.6426 15.5645 57.7188 14.6562 57.7188 13.5664C57.7188 12.4883 57.6455 11.5859 57.499 10.8594C57.3525 10.1328 57.1123 9.58789 56.7783 9.22461C56.4443 8.85547 55.9961 8.6709 55.4336 8.6709C54.8711 8.6709 54.4229 8.85547 54.0889 9.22461C53.7607 9.58789 53.5234 10.1328 53.377 10.8594C53.2363 11.5859 53.166 12.4883 53.166 13.5664ZM70.1113 20H61.4102V18.4443L64.7412 15.0693C65.3857 14.4131 65.916 13.8477 66.332 13.373C66.748 12.8926 67.0557 12.4385 67.2549 12.0107C67.46 11.583 67.5625 11.1172 67.5625 10.6133C67.5625 9.99219 67.3838 9.52344 67.0264 9.20703C66.6689 8.88477 66.1973 8.72363 65.6113 8.72363C65.0547 8.72363 64.5391 8.83496 64.0645 9.05762C63.5957 9.27441 63.1094 9.58496 62.6055 9.98926L61.4717 8.62695C61.8291 8.32227 62.21 8.04395 62.6143 7.79199C63.0244 7.54004 63.4814 7.34082 63.9854 7.19434C64.4893 7.04199 65.0635 6.96582 65.708 6.96582C66.5225 6.96582 67.2256 7.1123 67.8174 7.40527C68.4092 7.69238 68.8633 8.09375 69.1797 8.60938C69.502 9.125 69.6631 9.72559 69.6631 10.4111C69.6631 11.1025 69.5254 11.7412 69.25 12.3271C68.9746 12.9131 68.582 13.4932 68.0723 14.0674C67.5625 14.6357 66.9561 15.2539 66.2529 15.9219L64.0293 18.0928V18.1895H70.1113V20ZM77.7842 20H75.71V11.7295C75.71 11.4541 75.7129 11.1787 75.7188 10.9033C75.7246 10.6279 75.7305 10.3584 75.7363 10.0947C75.748 9.83105 75.7627 9.5791 75.7803 9.33887C75.6572 9.47363 75.5049 9.62012 75.3232 9.77832C75.1475 9.93652 74.96 10.1006 74.7607 10.2705L73.2842 11.4482L72.2471 10.1387L76.0615 7.15039H77.7842V20ZM89.4209 6.32422V9.76074C89.4209 10.1182 89.4092 10.4668 89.3857 10.8066C89.3682 11.1465 89.3477 11.4102 89.3242 11.5977H89.4385C89.6436 11.2578 89.8955 10.9795 90.1943 10.7627C90.4932 10.54 90.8271 10.373 91.1963 10.2617C91.5713 10.1504 91.9697 10.0947 92.3916 10.0947C93.1357 10.0947 93.7686 10.2207 94.29 10.4727C94.8115 10.7188 95.21 11.1025 95.4854 11.624C95.7666 12.1455 95.9072 12.8223 95.9072 13.6543V20H93.8418V14.041C93.8418 13.2852 93.6865 12.7197 93.376 12.3447C93.0654 11.9639 92.585 11.7734 91.9346 11.7734C91.3076 11.7734 90.8096 11.9053 90.4404 12.1689C90.0771 12.4268 89.8164 12.8105 89.6582 13.3203C89.5 13.8242 89.4209 14.4395 89.4209 15.166V20H87.3555V6.32422H89.4209ZM102.675 10.0859C103.542 10.0859 104.286 10.2646 104.907 10.6221C105.528 10.9795 106.006 11.4863 106.34 12.1426C106.674 12.7988 106.841 13.584 106.841 14.498V15.6055H100.346C100.369 16.5488 100.621 17.2754 101.102 17.7852C101.588 18.2949 102.268 18.5498 103.141 18.5498C103.762 18.5498 104.318 18.4912 104.811 18.374C105.309 18.251 105.821 18.0723 106.349 17.8379V19.5166C105.862 19.7451 105.367 19.9121 104.863 20.0176C104.359 20.123 103.756 20.1758 103.053 20.1758C102.098 20.1758 101.257 19.9912 100.53 19.6221C99.8096 19.2471 99.2441 18.6904 98.834 17.9521C98.4297 17.2139 98.2275 16.2969 98.2275 15.2012C98.2275 14.1113 98.4121 13.1855 98.7812 12.4238C99.1504 11.6621 99.6689 11.082 100.337 10.6836C101.005 10.2852 101.784 10.0859 102.675 10.0859ZM102.675 11.6416C102.024 11.6416 101.497 11.8525 101.093 12.2744C100.694 12.6963 100.46 13.3145 100.39 14.1289H104.819C104.813 13.6426 104.731 13.2119 104.573 12.8369C104.421 12.4619 104.187 12.1689 103.87 11.958C103.56 11.7471 103.161 11.6416 102.675 11.6416ZM111.244 20H109.17V6.32422H111.244V20ZM116.263 10.2705V20H114.197V10.2705H116.263ZM115.243 6.54395C115.56 6.54395 115.832 6.62891 116.061 6.79883C116.295 6.96875 116.412 7.26172 116.412 7.67773C116.412 8.08789 116.295 8.38086 116.061 8.55664C115.832 8.72656 115.56 8.81152 115.243 8.81152C114.915 8.81152 114.637 8.72656 114.408 8.55664C114.186 8.38086 114.074 8.08789 114.074 7.67773C114.074 7.26172 114.186 6.96875 114.408 6.79883C114.637 6.62891 114.915 6.54395 115.243 6.54395ZM127.838 15.1133C127.838 15.9219 127.732 16.6396 127.521 17.2666C127.311 17.8936 127.003 18.4238 126.599 18.8574C126.194 19.2852 125.708 19.6133 125.14 19.8418C124.571 20.0645 123.93 20.1758 123.215 20.1758C122.547 20.1758 121.935 20.0645 121.378 19.8418C120.821 19.6133 120.338 19.2852 119.928 18.8574C119.523 18.4238 119.21 17.8936 118.987 17.2666C118.765 16.6396 118.653 15.9219 118.653 15.1133C118.653 14.041 118.838 13.1328 119.207 12.3887C119.582 11.6387 120.115 11.0674 120.807 10.6748C121.498 10.2822 122.321 10.0859 123.276 10.0859C124.173 10.0859 124.964 10.2822 125.649 10.6748C126.335 11.0674 126.871 11.6387 127.258 12.3887C127.645 13.1387 127.838 14.0469 127.838 15.1133ZM120.78 15.1133C120.78 15.8223 120.865 16.4287 121.035 16.9326C121.211 17.4365 121.48 17.8232 121.844 18.0928C122.207 18.3564 122.676 18.4883 123.25 18.4883C123.824 18.4883 124.293 18.3564 124.656 18.0928C125.02 17.8232 125.286 17.4365 125.456 16.9326C125.626 16.4287 125.711 15.8223 125.711 15.1133C125.711 14.4043 125.626 13.8037 125.456 13.3115C125.286 12.8135 125.02 12.4355 124.656 12.1777C124.293 11.9141 123.821 11.7822 123.241 11.7822C122.386 11.7822 121.762 12.0693 121.369 12.6436C120.977 13.2178 120.78 14.041 120.78 15.1133ZM136.75 17.2227C136.75 17.8613 136.595 18.4004 136.284 18.8398C135.974 19.2793 135.52 19.6133 134.922 19.8418C134.33 20.0645 133.604 20.1758 132.742 20.1758C132.062 20.1758 131.477 20.126 130.984 20.0264C130.498 19.9326 130.038 19.7861 129.604 19.5869V17.8027C130.067 18.0195 130.586 18.207 131.16 18.3652C131.74 18.5234 132.288 18.6025 132.804 18.6025C133.483 18.6025 133.973 18.4971 134.271 18.2861C134.57 18.0693 134.72 17.7822 134.72 17.4248C134.72 17.2139 134.658 17.0264 134.535 16.8623C134.418 16.6924 134.195 16.5195 133.867 16.3438C133.545 16.1621 133.07 15.9453 132.443 15.6934C131.828 15.4473 131.31 15.2012 130.888 14.9551C130.466 14.709 130.146 14.4131 129.93 14.0674C129.713 13.7158 129.604 13.2676 129.604 12.7227C129.604 11.8613 129.944 11.208 130.624 10.7627C131.31 10.3115 132.215 10.0859 133.34 10.0859C133.938 10.0859 134.5 10.1475 135.027 10.2705C135.561 10.3877 136.082 10.5605 136.592 10.7891L135.941 12.3447C135.502 12.1514 135.06 11.9932 134.614 11.8701C134.175 11.7412 133.727 11.6768 133.27 11.6768C132.736 11.6768 132.329 11.7588 132.048 11.9229C131.772 12.0869 131.635 12.3213 131.635 12.626C131.635 12.8545 131.702 13.0479 131.837 13.2061C131.972 13.3643 132.203 13.5225 132.531 13.6807C132.865 13.8389 133.328 14.0352 133.92 14.2695C134.5 14.4922 135.001 14.7266 135.423 14.9727C135.851 15.2129 136.179 15.5088 136.407 15.8604C136.636 16.2119 136.75 16.666 136.75 17.2227ZM138.139 16.0449V14.2959H142.674V16.0449H138.139ZM146.857 20H144.783V6.32422H146.857V20ZM153.687 10.0859C154.554 10.0859 155.298 10.2646 155.919 10.6221C156.54 10.9795 157.018 11.4863 157.352 12.1426C157.686 12.7988 157.853 13.584 157.853 14.498V15.6055H151.357C151.381 16.5488 151.633 17.2754 152.113 17.7852C152.6 18.2949 153.279 18.5498 154.152 18.5498C154.773 18.5498 155.33 18.4912 155.822 18.374C156.32 18.251 156.833 18.0723 157.36 17.8379V19.5166C156.874 19.7451 156.379 19.9121 155.875 20.0176C155.371 20.123 154.768 20.1758 154.064 20.1758C153.109 20.1758 152.269 19.9912 151.542 19.6221C150.821 19.2471 150.256 18.6904 149.846 17.9521C149.441 17.2139 149.239 16.2969 149.239 15.2012C149.239 14.1113 149.424 13.1855 149.793 12.4238C150.162 11.6621 150.681 11.082 151.349 10.6836C152.017 10.2852 152.796 10.0859 153.687 10.0859ZM153.687 11.6416C153.036 11.6416 152.509 11.8525 152.104 12.2744C151.706 12.6963 151.472 13.3145 151.401 14.1289H155.831C155.825 13.6426 155.743 13.2119 155.585 12.8369C155.433 12.4619 155.198 12.1689 154.882 11.958C154.571 11.7471 154.173 11.6416 153.687 11.6416ZM165.253 10.0859C166.349 10.0859 167.201 10.3701 167.811 10.9385C168.426 11.501 168.733 12.4062 168.733 13.6543V20H166.668V14.041C166.668 13.2852 166.513 12.7197 166.202 12.3447C165.892 11.9639 165.411 11.7734 164.761 11.7734C163.817 11.7734 163.161 12.0635 162.792 12.6436C162.429 13.2236 162.247 14.0645 162.247 15.166V20H160.182V10.2705H161.79L162.08 11.5889H162.194C162.405 11.249 162.666 10.9707 162.977 10.7539C163.293 10.5312 163.645 10.3643 164.031 10.2529C164.424 10.1416 164.831 10.0859 165.253 10.0859ZM178.164 17.2227C178.164 17.8613 178.009 18.4004 177.698 18.8398C177.388 19.2793 176.934 19.6133 176.336 19.8418C175.744 20.0645 175.018 20.1758 174.156 20.1758C173.477 20.1758 172.891 20.126 172.398 20.0264C171.912 19.9326 171.452 19.7861 171.019 19.5869V17.8027C171.481 18.0195 172 18.207 172.574 18.3652C173.154 18.5234 173.702 18.6025 174.218 18.6025C174.897 18.6025 175.387 18.4971 175.686 18.2861C175.984 18.0693 176.134 17.7822 176.134 17.4248C176.134 17.2139 176.072 17.0264 175.949 16.8623C175.832 16.6924 175.609 16.5195 175.281 16.3438C174.959 16.1621 174.484 15.9453 173.857 15.6934C173.242 15.4473 172.724 15.2012 172.302 14.9551C171.88 14.709 171.561 14.4131 171.344 14.0674C171.127 13.7158 171.019 13.2676 171.019 12.7227C171.019 11.8613 171.358 11.208 172.038 10.7627C172.724 10.3115 173.629 10.0859 174.754 10.0859C175.352 10.0859 175.914 10.1475 176.441 10.2705C176.975 10.3877 177.496 10.5605 178.006 10.7891L177.355 12.3447C176.916 12.1514 176.474 11.9932 176.028 11.8701C175.589 11.7412 175.141 11.6768 174.684 11.6768C174.15 11.6768 173.743 11.7588 173.462 11.9229C173.187 12.0869 173.049 12.3213 173.049 12.626C173.049 12.8545 173.116 13.0479 173.251 13.2061C173.386 13.3643 173.617 13.5225 173.945 13.6807C174.279 13.8389 174.742 14.0352 175.334 14.2695C175.914 14.4922 176.415 14.7266 176.837 14.9727C177.265 15.2129 177.593 15.5088 177.821 15.8604C178.05 16.2119 178.164 16.666 178.164 17.2227ZM180.098 18.9102C180.098 18.4297 180.221 18.0928 180.467 17.8994C180.719 17.7002 181.023 17.6006 181.381 17.6006C181.738 17.6006 182.043 17.7002 182.295 17.8994C182.553 18.0928 182.682 18.4297 182.682 18.9102C182.682 19.3789 182.553 19.7188 182.295 19.9297C182.043 20.1348 181.738 20.2373 181.381 20.2373C181.023 20.2373 180.719 20.1348 180.467 19.9297C180.221 19.7188 180.098 19.3789 180.098 18.9102ZM189.256 20.1758C188.336 20.1758 187.539 19.9971 186.865 19.6396C186.191 19.2822 185.673 18.7344 185.31 17.9961C184.946 17.2578 184.765 16.3203 184.765 15.1836C184.765 14 184.964 13.0332 185.362 12.2832C185.761 11.5332 186.312 10.9795 187.015 10.6221C187.724 10.2646 188.535 10.0859 189.449 10.0859C190.029 10.0859 190.554 10.1445 191.022 10.2617C191.497 10.373 191.898 10.5107 192.227 10.6748L191.611 12.3271C191.254 12.1807 190.888 12.0576 190.513 11.958C190.138 11.8584 189.777 11.8086 189.432 11.8086C188.863 11.8086 188.389 11.9346 188.008 12.1865C187.633 12.4385 187.352 12.8135 187.164 13.3115C186.982 13.8096 186.892 14.4277 186.892 15.166C186.892 15.8809 186.985 16.4844 187.173 16.9766C187.36 17.4629 187.639 17.832 188.008 18.084C188.377 18.3301 188.831 18.4531 189.37 18.4531C189.903 18.4531 190.381 18.3887 190.803 18.2598C191.225 18.1309 191.623 17.9639 191.998 17.7588V19.5518C191.629 19.7627 191.233 19.918 190.812 20.0176C190.39 20.123 189.871 20.1758 189.256 20.1758ZM202.896 15.1133C202.896 15.9219 202.791 16.6396 202.58 17.2666C202.369 17.8936 202.062 18.4238 201.657 18.8574C201.253 19.2852 200.767 19.6133 200.198 19.8418C199.63 20.0645 198.988 20.1758 198.273 20.1758C197.605 20.1758 196.993 20.0645 196.437 19.8418C195.88 19.6133 195.396 19.2852 194.986 18.8574C194.582 18.4238 194.269 17.8936 194.046 17.2666C193.823 16.6396 193.712 15.9219 193.712 15.1133C193.712 14.041 193.896 13.1328 194.266 12.3887C194.641 11.6387 195.174 11.0674 195.865 10.6748C196.557 10.2822 197.38 10.0859 198.335 10.0859C199.231 10.0859 200.022 10.2822 200.708 10.6748C201.394 11.0674 201.93 11.6387 202.316 12.3887C202.703 13.1387 202.896 14.0469 202.896 15.1133ZM195.839 15.1133C195.839 15.8223 195.924 16.4287 196.094 16.9326C196.27 17.4365 196.539 17.8232 196.902 18.0928C197.266 18.3564 197.734 18.4883 198.309 18.4883C198.883 18.4883 199.352 18.3564 199.715 18.0928C200.078 17.8232 200.345 17.4365 200.515 16.9326C200.685 16.4287 200.77 15.8223 200.77 15.1133C200.77 14.4043 200.685 13.8037 200.515 13.3115C200.345 12.8135 200.078 12.4355 199.715 12.1777C199.352 11.9141 198.88 11.7822 198.3 11.7822C197.444 11.7822 196.82 12.0693 196.428 12.6436C196.035 13.2178 195.839 14.041 195.839 15.1133ZM216.265 10.0859C217.354 10.0859 218.175 10.3672 218.726 10.9297C219.282 11.4922 219.561 12.3945 219.561 13.6367V20H217.495V14.0059C217.495 13.2676 217.352 12.7109 217.064 12.3359C216.777 11.9609 216.341 11.7734 215.755 11.7734C214.935 11.7734 214.343 12.0371 213.979 12.5645C213.622 13.0859 213.443 13.8447 213.443 14.8408V20H211.378V14.0059C211.378 13.5137 211.313 13.1035 211.185 12.7754C211.062 12.4414 210.871 12.1924 210.613 12.0283C210.355 11.8584 210.03 11.7734 209.638 11.7734C209.069 11.7734 208.615 11.9023 208.275 12.1602C207.941 12.418 207.701 12.7988 207.555 13.3027C207.408 13.8008 207.335 14.4131 207.335 15.1396V20H205.27V10.2705H206.878L207.168 11.5801H207.282C207.481 11.2402 207.728 10.9619 208.021 10.7451C208.319 10.5225 208.65 10.3584 209.014 10.2529C209.377 10.1416 209.755 10.0859 210.147 10.0859C210.874 10.0859 211.486 10.2148 211.984 10.4727C212.482 10.7246 212.854 11.1113 213.101 11.6328H213.259C213.563 11.1055 213.988 10.7158 214.533 10.4639C215.078 10.2119 215.655 10.0859 216.265 10.0859Z" fill="white"/>
<path d="M13 25.375C6.71836 25.375 1.625 20.2816 1.625 14C1.625 7.71836 6.71836 2.625 13 2.625C19.2816 2.625 24.375 7.71836 24.375 14C24.375 20.2816 19.2816 25.375 13 25.375ZM13 4.55469C7.78477 4.55469 3.55469 8.78477 3.55469 14C3.55469 19.2152 7.78477 23.4453 13 23.4453C18.2152 23.4453 22.4453 19.2152 22.4453 14C22.4453 8.78477 18.2152 4.55469 13 4.55469ZM13.1422 18.0803C14.4879 18.0803 15.402 17.2221 15.5035 15.9627C15.5111 15.8561 15.6 15.7748 15.7066 15.7748H17.1463C17.2123 15.7748 17.2656 15.8281 17.2656 15.8941C17.2656 18.0955 15.5289 19.6367 13.1346 19.6367C10.3441 19.6367 8.73438 17.7527 8.73438 14.6398V13.3119C8.73438 10.2219 10.3441 8.36328 13.1346 8.36328C15.5213 8.36328 17.2656 9.85625 17.2656 11.9535C17.2656 12.0195 17.2123 12.0729 17.1463 12.0729H15.7041C15.5975 12.0729 15.5111 11.9916 15.501 11.8875C15.3943 10.717 14.4828 9.91211 13.1396 9.91211C11.4816 9.91211 10.5473 11.1283 10.5473 13.3043V14.6398C10.5498 16.8488 11.4867 18.0803 13.1422 18.0803Z" fill="white"/>
</svg>
